<svg xmlns="http://www.w3.org/2000/svg" xmlns:xlink="http://www.w3.org/1999/xlink" width="500" zoomAndPan="magnify" viewBox="0 0 375 374.999991" height="500" preserveAspectRatio="xMidYMid meet" version="1.0"><defs><filter x="0%" y="0%" width="100%" height="100%" id="6d962ab059"><feColorMatrix values="0 0 0 0 1 0 0 0 0 1 0 0 0 0 1 0 0 0 1 0" color-interpolation-filters="sRGB"/></filter><mask id="46be724c83"><g filter="url(#6d962ab059)"><rect x="-37.5" width="450" fill="#000000" y="-37.499999" height="449.999989" fill-opacity="0.3"/></g></mask><clipPath id="4e44b8e3ef"><path d="M 0 0 L 375 0 L 375 375 L 0 375 Z M 0 0 " clip-rule="nonzero"/></clipPath><clipPath id="d2bccc791f"><path d="M 75 0 L 300 0 C 341.421875 0 375 33.578125 375 75 L 375 300 C 375 341.421875 341.421875 375 300 375 L 75 375 C 33.578125 375 0 341.421875 0 300 L 0 75 C 0 33.578125 33.578125 0 75 0 Z M 75 0 " clip-rule="nonzero"/></clipPath><clipPath id="b5875078a5"><rect x="0" width="375" y="0" height="375"/></clipPath><clipPath id="83542610e2"><path d="M 85.296875 69.300781 L 231.574219 69.300781 L 231.574219 306.277344 L 85.296875 306.277344 Z M 85.296875 69.300781 " clip-rule="nonzero"/></clipPath><clipPath id="593d821b23"><path d="M 204.078125 230.828125 L 289.714844 230.828125 L 289.714844 306.277344 L 204.078125 306.277344 Z M 204.078125 230.828125 " clip-rule="nonzero"/></clipPath></defs><g mask="url(#46be724c83)"><g transform="matrix(1, 0, 0, 1, 0, 0)"><g clip-path="url(#b5875078a5)"><g clip-path="url(#4e44b8e3ef)"><g clip-path="url(#d2bccc791f)"><rect x="-82.5" width="540" fill="#00a86b" height="539.999987" y="-82.499998" fill-opacity="1"/></g></g></g></g></g><g clip-path="url(#83542610e2)"><path fill="#00a86b" d="M 110.78125 69.773438 C 102.0625 70.421875 93.582031 72.195312 85.335938 75.101562 L 85.335938 306.277344 L 231.542969 306.277344 L 231.542969 265.140625 C 229.074219 265.75 226.570312 266.140625 224.035156 266.316406 C 215.769531 266.855469 206.855469 264.253906 201.832031 257.691406 C 189.707031 241.851562 205.867188 214.035156 190.917969 200.828125 C 178.445312 189.824219 157.535156 201.34375 142.628906 193.953125 C 130.621094 188 127.371094 171.746094 130.757812 158.777344 C 134.144531 145.804688 142.351562 134.707031 147.996094 122.558594 C 153.644531 110.410156 156.535156 95.371094 149.316406 84.078125 C 141.570312 71.9375 125.164062 68.714844 110.78125 69.773438 " fill-opacity="1" fill-rule="nonzero"/></g><g clip-path="url(#593d821b23)"><path fill="#00a86b" d="M 140.769531 -0.363281 C 146.433594 18.832031 140.769531 39.289062 136.039062 58.734375 C 129.894531 84.035156 125.363281 109.757812 123.464844 135.722656 C 122.648438 146.878906 122.410156 158.558594 127.140625 168.691406 C 131.871094 178.828125 143.019531 186.800781 153.929688 184.351562 C 158.285156 183.371094 162.136719 180.890625 166.347656 179.40625 C 184.347656 173.070312 206.007812 190.453125 203.710938 209.390625 C 201.921875 224.039062 188.921875 237.902344 194.28125 251.644531 C 198.28125 261.917969 210.910156 265.960938 221.933594 265.679688 C 232.957031 265.398438 243.910156 262.136719 254.863281 263.433594 C 275.042969 265.816406 289.871094 286.414062 289.460938 306.214844 L 84.644531 306.214844 L 84.644531 -36.820312 C 108.4375 -38.425781 133.894531 -23.660156 140.769531 -0.363281 " fill-opacity="1" fill-rule="nonzero"/></g></svg>